<?xml version="1.0" standalone="no"?>
<!DOCTYPE svg PUBLIC "-//W3C//DTD SVG 20010904//EN"
 "http://www.w3.org/TR/2001/REC-SVG-20010904/DTD/svg10.dtd">
<svg version="1.0" xmlns="http://www.w3.org/2000/svg"
 width="535.000000pt" height="535.000000pt" viewBox="0 0 535.000000 535.000000"
 preserveAspectRatio="xMidYMid meet">
<metadata>
Created by potrace 1.11, written by Peter Selinger 2001-2013
</metadata>
<g transform="translate(0.000000,535.000000) scale(0.100000,-0.100000)"
fill="#000000" stroke="none">
<path d="M0 2675 l0 -2625 1433 3 1432 3 132 31 c265 64 480 140 693 247 270
136 456 272 665 487 185 191 306 366 431 624 391 809 358 1630 -97 2353 -312
495 -726 831 -1234 1001 -456 152 -962 172 -1395 55 -542 -147 -1066 -532
-1380 -1014 -288 -443 -429 -1058 -366 -1590 79 -653 443 -1282 976 -1681 323
-243 659 -393 1070 -481 l135 -28 -115 5 c-306 15 -568 83 -876 230 -804 382
-1283 1013 -1453 1915 -33 179 -44 329 -38 539 11 398 95 717 286 1087 275
535 676 935 1186 1184 276 134 569 225 855 264 95 13 -14 14 -1117 15 l-1223
1 0 -2625z m1500 570 c935 -675 992 -717 987 -722 -4 -4 -684 357 -1071 569
-49 26 -91 46 -93 44 -3 -3 90 -187 206 -409 116 -223 211 -414 211 -425 0
-15 -63 -70 -226 -199 -124 -98 -236 -185 -247 -195 l-21 -16 26 -39 c14 -21
294 -416 622 -878 522 -735 654 -928 563 -819 -13 16 -222 265 -463 554 -1038
1241 -988 1180 -973 1194 8 7 114 97 237 201 190 159 222 190 216 208 -4 11
-157 333 -340 714 -184 382 -334 701 -334 710 0 12 7 10 33 -9 17 -14 318
-231 667 -483z m3060 501 c0 -3 -260 -545 -611 -1274 -43 -89 -76 -169 -73
-177 3 -8 109 -101 235 -206 126 -106 228 -196 227 -200 -3 -8 -179 -219
-1101 -1322 -198 -236 -361 -427 -363 -424 -3 2 272 395 611 872 338 477 615
871 615 875 0 4 -93 80 -207 169 -312 242 -286 218 -280 258 3 18 21 59 40 91
53 88 380 722 375 727 -2 2 -264 -136 -581 -307 -318 -171 -580 -308 -583
-305 -3 2 287 215 643 473 356 257 736 532 843 610 179 131 210 151 210 140z
m-2403 -2012 c80 -20 180 -71 200 -100 15 -23 15 -26 0 -42 -43 -42 -257 -18
-384 44 -101 49 -120 92 -51 113 41 13 157 5 235 -15z m1293 6 c87 -47 -120
-157 -315 -167 -101 -6 -145 6 -145 36 0 84 357 186 460 131z"/>
<path d="M2945 5293 c638 -77 1265 -385 1681 -826 412 -437 679 -1082 713
-1722 5 -77 9 466 9 1208 l2 1347 -1217 -1 c-670 -1 -1204 -4 -1188 -6z"/>
<path d="M5340 2501 c0 -213 -67 -533 -161 -772 -201 -511 -562 -965 -998
-1256 -328 -220 -727 -361 -1146 -407 -118 -12 -18 -14 1093 -15 l1222 -1 0
1270 c0 699 -2 1270 -5 1270 -3 0 -5 -40 -5 -89z"/>
</g>
</svg>
